<?xml version="1.0" standalone="no"?>
<!DOCTYPE svg PUBLIC "-//W3C//DTD SVG 20010904//EN"
 "http://www.w3.org/TR/2001/REC-SVG-20010904/DTD/svg10.dtd">
<svg version="1.0" xmlns="http://www.w3.org/2000/svg"
 width="346.000000pt" height="478.000000pt" viewBox="0 0 346.000000 478.000000"
 preserveAspectRatio="xMidYMid meet">

<g transform="translate(0.000000,478.000000) scale(0.100000,-0.100000)"
fill="#000000" stroke="none">
<path d="M1633 4765 c-183 -40 -324 -190 -355 -379 -31 -187 79 -393 255 -479
l57 -28 0 -422 0 -422 -50 -18 c-67 -24 -136 -90 -145 -139 -10 -54 23 -118
83 -158 69 -45 142 -65 247 -65 105 0 178 20 247 65 60 40 93 104 83 158 -9
49 -78 115 -145 139 l-50 18 0 420 0 421 62 29 c180 86 291 291 260 481 -31
190 -173 340 -359 379 -82 18 -109 18 -190 0z"/>
<path d="M1295 3650 c-56 -23 -1106 -635 -1142 -665 -55 -46 -96 -107 -119
-175 -17 -51 -19 -111 -22 -865 -2 -581 0 -827 8 -870 14 -72 59 -161 103
-203 33 -31 227 -147 832 -497 653 -377 631 -367 770 -367 56 0 119 5 141 12
88 29 1401 787 1462 844 46 43 87 111 106 175 14 48 16 153 16 860 0 871 -2
896 -54 985 -30 51 -106 124 -166 158 -25 14 -274 158 -555 319 -460 264 -515
293 -563 297 -62 5 -84 -9 -114 -76 -24 -53 -13 -97 35 -139 18 -15 210 -129
426 -253 262 -150 400 -235 414 -254 46 -65 29 -171 -37 -221 -34 -26 -547
-331 -841 -501 l-190 -109 -75 0 -75 0 -165 95 c-91 53 -324 190 -519 305
-383 228 -398 240 -408 328 -6 48 10 88 49 124 12 12 201 124 418 248 217 124
405 238 417 253 44 53 37 130 -18 181 -24 22 -94 28 -134 11z m-787 -1169
c146 -75 1051 -614 1067 -636 19 -26 20 -44 23 -658 2 -460 -1 -639 -9 -659
-16 -39 -72 -86 -112 -93 -19 -4 -54 -1 -78 5 -36 9 -922 508 -1062 597 -24
15 -46 41 -58 66 -18 40 -19 75 -19 673 0 615 1 632 20 657 48 61 157 84 228
48z m2608 0 c22 -10 50 -31 62 -46 l22 -28 0 -634 c0 -697 2 -679 -61 -725
-74 -54 -1023 -591 -1070 -605 -62 -18 -108 -11 -150 24 -60 51 -59 35 -59
700 1 651 2 669 51 703 12 8 258 153 547 323 483 282 530 307 572 307 25 0 63
-9 86 -19z"/>
<path d="M822 1964 c-21 -14 -22 -22 -22 -140 0 -69 -3 -124 -7 -122 -5 2 -52
26 -106 53 -94 48 -99 49 -125 35 -26 -15 -27 -19 -30 -108 -1 -50 2 -100 7
-110 5 -10 66 -49 135 -86 l126 -68 0 -150 c0 -84 5 -158 10 -169 13 -23 160
-99 193 -99 42 0 47 16 47 152 0 70 3 128 6 128 3 0 47 -22 98 -50 101 -54
148 -63 166 -31 13 26 13 174 -1 204 -7 16 -54 47 -140 93 l-129 69 0 145 c0
171 0 171 -99 230 -74 44 -95 48 -129 24z"/>
<path d="M2515 1918 c-42 -23 -98 -85 -121 -133 -38 -81 -29 -146 23 -166 88
-33 232 107 233 226 0 60 -22 85 -73 85 -23 0 -51 -6 -62 -12z"/>
<path d="M2801 1782 c-53 -36 -105 -109 -120 -167 -32 -127 83 -167 187 -65
83 80 114 200 63 241 -33 27 -81 24 -130 -9z"/>
<path d="M2225 1451 c-108 -49 -186 -219 -129 -282 28 -31 102 -22 152 18 79
63 127 172 103 230 -12 29 -47 53 -74 53 -7 0 -30 -9 -52 -19z"/>
<path d="M2515 1322 c-69 -43 -134 -145 -135 -212 -1 -142 188 -96 261 64 25
56 25 120 -1 146 -26 26 -85 26 -125 2z"/>
</g>
</svg>
